<svg width="32" height="32" viewBox="0 0 32 32" fill="none" xmlns="http://www.w3.org/2000/svg">
  <path d="M16 5C14.6739 5 13.4021 5.52678 12.4645 6.46447C11.5268 7.40215 11 8.67392 11 10C11 11.3261 11.5268 12.5979 12.4645 13.5355C13.4021 14.4732 14.6739 15 16 15C17.3261 15 18.5979 14.4732 19.5355 13.5355C20.4732 12.5979 21 11.3261 21 10C21 8.67392 20.4732 7.40215 19.5355 6.46447C18.5979 5.52678 17.3261 5 16 5Z" fill="#E56E12"/>
  <path d="M3 15C3 15 7 11 16 11C25 11 29 15 29 15C29 15 25 19 16 19C7 19 3 15 3 15Z" fill="#F38E1C"/>
  <path d="M7 25.5C7 25.5 10 21 16 21C22 21 25 25.5 25 25.5C25 25.5 21 28 16 28C11 28 7 25.5 7 25.5Z" fill="#F7B151"/>
  <path d="M16 1C16 1 14 6 14 10C14 14 16 15 16 15C16 15 18 14 18 10C18 6 16 1 16 1Z" fill="#BC4E13"/>
  <path d="M16 19V31" stroke="#E56E12" stroke-width="2"/>
</svg>