<svg width="800" height="800" viewBox="0 0 800 800" fill="none" xmlns="http://www.w3.org/2000/svg">
  <circle cx="400" cy="400" r="300" fill="#FFF9ED" stroke="#F38E1C" stroke-width="4"/>
  
  <!-- Center -->
  <circle cx="400" cy="400" r="80" fill="#F38E1C" />
  <text x="400" y="405" text-anchor="middle" font-family="serif" font-size="22" fill="white">Eightfold Path</text>
  
  <!-- Spokes -->
  <line x1="400" y1="80" x2="400" y2="320" stroke="#F38E1C" stroke-width="3" />
  <line x1="720" y1="400" x2="480" y2="400" stroke="#F38E1C" stroke-width="3" />
  <line x1="400" y1="720" x2="400" y2="480" stroke="#F38E1C" stroke-width="3" />
  <line x1="80" y1="400" x2="320" y2="400" stroke="#F38E1C" stroke-width="3" />
  <line x1="615" y1="185" x2="438" y2="362" stroke="#F38E1C" stroke-width="3" />
  <line x1="615" y1="615" x2="438" y2="438" stroke="#F38E1C" stroke-width="3" />
  <line x1="185" y1="615" x2="362" y2="438" stroke="#F38E1C" stroke-width="3" />
  <line x1="185" y1="185" x2="362" y2="362" stroke="#F38E1C" stroke-width="3" />
  
  <!-- Path Elements -->
  <g id="right-view">
    <circle cx="400" cy="120" r="50" fill="white" stroke="#F38E1C" stroke-width="2" />
    <text x="400" y="125" text-anchor="middle" font-family="serif" font-size="16" fill="#422209">Right View</text>
  </g>
  
  <g id="right-intention">
    <circle cx="615" cy="235" r="50" fill="white" stroke="#F38E1C" stroke-width="2" />
    <text x="615" y="240" text-anchor="middle" font-family="serif" font-size="16" fill="#422209">Right Intention</text>
  </g>
  
  <g id="right-speech">
    <circle cx="680" cy="400" r="50" fill="white" stroke="#F38E1C" stroke-width="2" />
    <text x="680" y="405" text-anchor="middle" font-family="serif" font-size="16" fill="#422209">Right Speech</text>
  </g>
  
  <g id="right-action">
    <circle cx="615" cy="565" r="50" fill="white" stroke="#F38E1C" stroke-width="2" />
    <text x="615" y="570" text-anchor="middle" font-family="serif" font-size="16" fill="#422209">Right Action</text>
  </g>
  
  <g id="right-livelihood">
    <circle cx="400" cy="680" r="50" fill="white" stroke="#F38E1C" stroke-width="2" />
    <text x="400" y="685" text-anchor="middle" font-family="serif" font-size="16" fill="#422209">Right Livelihood</text>
  </g>
  
  <g id="right-effort">
    <circle cx="185" cy="565" r="50" fill="white" stroke="#F38E1C" stroke-width="2" />
    <text x="185" y="570" text-anchor="middle" font-family="serif" font-size="16" fill="#422209">Right Effort</text>
  </g>
  
  <g id="right-mindfulness">
    <circle cx="120" cy="400" r="50" fill="white" stroke="#F38E1C" stroke-width="2" />
    <text x="120" y="405" text-anchor="middle" font-family="serif" font-size="16" fill="#422209">Right Mindfulness</text>
  </g>
  
  <g id="right-concentration">
    <circle cx="185" cy="235" r="50" fill="white" stroke="#F38E1C" stroke-width="2" />
    <text x="185" y="240" text-anchor="middle" font-family="serif" font-size="16" fill="#422209">Right Concentration</text>
  </g>
</svg>